<?xml version="1.0" encoding="UTF-8" standalone="no"?><!DOCTYPE svg PUBLIC "-//W3C//DTD SVG 1.1//EN" "http://www.w3.org/Graphics/SVG/1.1/DTD/svg11.dtd"><svg width="100%" height="100%" viewBox="0 0 32 32" version="1.1" xmlns="http://www.w3.org/2000/svg" xmlns:xlink="http://www.w3.org/1999/xlink" xml:space="preserve" style="fill-rule:evenodd;clip-rule:evenodd;stroke-linejoin:round;stroke-miterlimit:1.41421;"><path d="M16,1c-8.229,0 -15,6.771 -15,15c0,8.229 6.771,15 15,15c8.229,0 15,-6.771 15,-15c0,-8.229 -6.771,-15 -15,-15Zm2,22c0,1.097 -0.903,2 -2,2c-1.097,0 -2,-0.903 -2,-2l0,-7c0,-1.097 0.903,-2 2,-2c1.097,0 2,0.903 2,2l0,7Zm-2,-10.81c-1.201,0 -2.19,-0.989 -2.19,-2.19c0,-1.201 0.989,-2.19 2.19,-2.19c1.201,0 2.19,0.989 2.19,2.19c0,1.201 -0.989,2.19 -2.19,2.19Z" style="fill:#0089d6;fill-rule:nonzero;"/></svg>