<?xml version="1.0" encoding="UTF-8" standalone="no"?><!DOCTYPE svg PUBLIC "-//W3C//DTD SVG 1.1//EN" "http://www.w3.org/Graphics/SVG/1.1/DTD/svg11.dtd"><svg width="100%" height="100%" viewBox="0 0 136 170" version="1.1" xmlns="http://www.w3.org/2000/svg" xmlns:xlink="http://www.w3.org/1999/xlink" xml:space="preserve" style="fill-rule:evenodd;clip-rule:evenodd;stroke-linejoin:round;stroke-miterlimit:1.41421;"><g id="___.2e.2e.2e.23.2e.2e.2e.ffffffff"><path d="M67.688,0.434l0.369,0c1.165,0.044 2.324,0.382 3.309,1.014c1.731,1.087 2.899,3.028 3.008,5.074c0.093,1.367 -0.254,2.761 -0.996,3.913c-1.025,1.62 -2.791,2.751 -4.698,2.966c-1.813,0.237 -3.714,-0.345 -5.081,-1.56c-1.375,-1.193 -2.218,-2.987 -2.213,-4.813c-0.044,-1.711 0.652,-3.416 1.851,-4.635c1.159,-1.196 2.789,-1.903 4.451,-1.959m-1.062,0.473c-2.263,0.454 -4.17,2.283 -4.718,4.523c-0.45,1.784 -0.073,3.764 1.054,5.226c1.297,1.752 3.579,2.72 5.739,2.398c1.587,-0.199 3.073,-1.061 4.049,-2.326c0.986,-1.248 1.445,-2.894 1.257,-4.471c-0.189,-1.889 -1.336,-3.64 -2.965,-4.603c-1.309,-0.803 -2.919,-1.042 -4.416,-0.747l0,0Z" style="fill:#fff;fill-rule:nonzero;"/><path d="M38.777,2.255c2.064,-0.852 4.295,-1.209 6.511,-1.371c1.582,-0.09 3.18,-0.028 4.739,0.278c2.012,0.4 4.071,1.265 5.336,2.952c1.191,1.621 2.179,3.514 2.238,5.566c0.066,1.509 -0.506,2.985 -1.378,4.199c-0.868,1.234 -2.057,2.181 -3.107,3.247c-0.16,0.172 -0.318,0.37 -0.33,0.616c-0.154,1.348 0.335,2.708 1.137,3.778c0.949,1.273 2.433,2.096 3.995,2.326c1.706,0.291 3.449,-0.048 5.076,-0.573c0.069,0.036 0.206,0.106 0.275,0.142c-0.025,0.576 -0.002,1.154 0.014,1.73c0.088,2.728 0.111,5.458 0.188,8.186c0.023,0.339 -0.39,0.42 -0.623,0.549c-1.681,0.805 -3.555,1.124 -5.407,1.124c-2.37,-0.048 -4.643,-1.006 -6.537,-2.388c-1.707,-1.301 -3.277,-2.976 -3.892,-5.079c-0.272,-0.874 -0.163,-1.971 0.598,-2.571c0.268,-0.189 0.466,-0.588 0.317,-0.898c-0.296,-0.09 -0.611,0.005 -0.912,0.009c-1.918,0.208 -3.905,-0.012 -5.681,-0.789c-1.67,-0.7 -3.126,-1.876 -4.213,-3.32c-1.667,-2.204 -2.462,-5.014 -2.324,-7.763c0.037,-0.442 0.076,-0.885 0.059,-1.329c-0.175,-0.036 -0.384,-0.162 -0.544,-0.015c-0.359,0.358 -0.584,0.822 -0.883,1.224c-1.683,2.362 -3.982,4.189 -6.346,5.827c-3.462,2.342 -6.943,4.67 -10.627,6.652c-2.099,1.138 -4.24,2.223 -6.499,3.005c-0.923,0.315 -1.897,0.432 -2.86,0.558c-1.615,0.189 -3.287,0.269 -4.866,-0.187c-0.872,-0.289 -1.811,-0.811 -2.131,-1.726l0,-0.162c0.211,-0.383 0.671,-0.494 1.03,-0.69c2.572,-1.284 5.286,-2.274 7.788,-3.695c2.975,-1.64 5.856,-3.446 8.683,-5.325c5.893,-3.943 11.43,-8.408 17.502,-12.083c1.193,-0.722 2.41,-1.415 3.674,-2.004m4.648,-0.842c-1.613,0.239 -3.23,0.583 -4.724,1.25c-2.177,1.07 -4.233,2.366 -6.265,3.684c-4.062,2.684 -7.946,5.62 -11.931,8.415c-2.495,1.766 -5.058,3.432 -7.666,5.024c-2.045,1.244 -4.117,2.453 -6.281,3.479c-2.044,0.935 -4.129,1.79 -6.121,2.833c0.321,0.93 1.35,1.369 2.233,1.607c2.144,0.445 4.359,0.156 6.483,-0.26c2.292,-0.655 4.428,-1.755 6.533,-2.853c3.083,-1.636 6.04,-3.494 8.934,-5.441c2.925,-1.928 5.909,-3.915 8.104,-6.694c0.468,-0.562 0.807,-1.217 1.276,-1.776c0.309,-0.385 1.039,-0.292 1.187,0.198c0.059,0.348 -0.013,0.701 -0.034,1.048c-0.315,3.953 1.473,8.128 4.87,10.283c1.674,1.076 3.672,1.614 5.656,1.601c0.756,0.035 1.501,-0.161 2.257,-0.112c0.633,0.197 0.402,1.147 -0.011,1.455c-0.719,0.478 -0.806,1.451 -0.604,2.222c0.477,1.741 1.686,3.166 3.01,4.342c2.015,1.715 4.57,2.92 7.252,2.949c1.917,-0.027 3.861,-0.397 5.558,-1.322c-0.096,-3.231 -0.147,-6.463 -0.231,-9.694c-2.14,0.706 -4.568,0.967 -6.692,0.067c-2.286,-0.93 -3.943,-3.345 -3.796,-5.835c-0.023,-0.603 0.463,-1.028 0.861,-1.404c1.392,-1.31 2.898,-2.641 3.574,-4.485c0.768,-1.852 0.366,-3.97 -0.538,-5.698c-0.648,-1.216 -1.398,-2.445 -2.542,-3.256c-0.746,-0.51 -1.562,-0.91 -2.421,-1.185c-2.557,-0.799 -5.296,-0.78 -7.931,-0.442l0,0Z" style="fill:#fff;fill-rule:nonzero;"/><path d="M86.239,1.073c3.049,-0.47 6.189,-0.182 9.158,0.625c1.439,0.365 2.737,1.105 4.022,1.826c7.722,4.471 14.523,10.324 22.116,14.992c2.553,1.594 5.132,3.157 7.852,4.453c1.782,0.808 3.588,1.566 5.344,2.436c0.331,0.178 0.748,0.29 0.939,0.646l0,0.158c-0.331,0.952 -1.322,1.479 -2.23,1.761c-1.911,0.511 -3.912,0.291 -5.84,0.008c-0.831,-0.116 -1.648,-0.326 -2.426,-0.641c-1.664,-0.607 -3.247,-1.405 -4.822,-2.211c-2.583,-1.369 -5.103,-2.857 -7.542,-4.467c-2.006,-1.331 -4.044,-2.618 -5.962,-4.077c-1.873,-1.457 -3.652,-3.1 -4.927,-5.122c-0.218,-0.349 -0.527,-0.875 -1.008,-0.586c-0.03,0.794 0.133,1.583 0.06,2.376c-0.09,3.686 -1.985,7.367 -5.157,9.321c-2.042,1.287 -4.535,1.768 -6.922,1.518c-0.349,-0.006 -0.71,-0.115 -1.051,-0.021c-0.15,0.309 0.047,0.708 0.314,0.897c0.685,0.534 0.855,1.502 0.664,2.312c-0.318,1.423 -1.172,2.656 -2.138,3.718c-1.789,1.903 -4.139,3.312 -6.708,3.834c-2.179,0.382 -4.472,0.106 -6.522,-0.719c-0.383,-0.205 -0.889,-0.277 -1.149,-0.648c0.031,-1.913 0.085,-3.827 0.113,-5.74c0.022,-1.437 0.114,-2.874 0.084,-4.31c0.068,-0.034 0.206,-0.103 0.275,-0.138c1.194,0.391 2.439,0.659 3.701,0.682c1.527,0.006 3.1,-0.393 4.311,-1.356c1.409,-1.114 2.339,-2.908 2.212,-4.723c0.007,-0.508 -0.43,-0.828 -0.752,-1.151c-0.915,-0.889 -1.897,-1.726 -2.644,-2.768c-0.903,-1.228 -1.501,-2.73 -1.436,-4.272c0.06,-2.089 1.077,-4.014 2.301,-5.654c1.383,-1.771 3.616,-2.607 5.77,-2.959m0.12,0.327c-1.99,0.322 -4.042,1.041 -5.41,2.59c-0.891,1.104 -1.629,2.348 -2.08,3.697c-0.488,1.448 -0.513,3.081 0.116,4.49c0.705,1.757 2.158,3.034 3.502,4.302c0.395,0.375 0.88,0.797 0.859,1.395c0.152,2.495 -1.506,4.916 -3.799,5.845c-2.122,0.898 -4.548,0.639 -6.686,-0.068c-0.085,3.232 -0.137,6.464 -0.231,9.695c0.811,0.434 1.68,0.757 2.576,0.975c1.983,0.44 4.105,0.521 6.038,-0.19c2.328,-0.789 4.405,-2.289 5.911,-4.229c0.748,-1.034 1.472,-2.249 1.368,-3.574c-0.028,-0.556 -0.405,-0.993 -0.831,-1.307c-0.254,-0.372 -0.449,-1.147 0.137,-1.322c0.708,-0.05 1.407,0.128 2.117,0.113c1.608,0.023 3.228,-0.297 4.686,-0.985c2.041,-0.961 3.72,-2.641 4.734,-4.652c0.883,-1.716 1.311,-3.657 1.28,-5.585c0.012,-0.528 -0.101,-1.051 -0.081,-1.58c0.014,-0.548 0.795,-0.746 1.148,-0.384c0.178,0.172 0.314,0.382 0.456,0.585c2.057,3.244 5.274,5.487 8.425,7.571c4.335,2.916 8.791,5.702 13.588,7.8c1.036,0.405 2.071,0.855 3.18,1.011c1.865,0.301 3.79,0.51 5.66,0.13c0.867,-0.208 1.774,-0.615 2.247,-1.411c0.182,-0.206 -0.128,-0.31 -0.259,-0.39c-1.837,-0.918 -3.726,-1.724 -5.598,-2.565c-1.743,-0.815 -3.43,-1.746 -5.081,-2.733c-4.526,-2.651 -8.842,-5.639 -13.079,-8.727c-4.476,-3.202 -8.919,-6.503 -13.812,-9.052c-1.137,-0.586 -2.384,-0.914 -3.629,-1.181c-2.447,-0.483 -4.981,-0.634 -7.452,-0.264l0,0Z" style="fill:#fff;fill-rule:nonzero;"/><path d="M63.557,14.825c-0.043,-0.213 0.15,-0.398 0.36,-0.346c2.647,-0.003 5.293,0 7.94,-0.001c0.19,-0.045 0.391,0.118 0.362,0.32c-0.379,14.802 -0.719,29.606 -1.1,44.408c2.182,-0.679 4.389,-1.317 6.45,-2.319c2.221,-1.045 4.384,-2.449 5.761,-4.53c1.166,-1.733 1.618,-3.869 1.49,-5.938c-0.058,-0.441 0.053,-0.964 -0.278,-1.317c-0.816,1.106 -2.016,1.913 -3.378,2.159c-1.165,0.183 -2.421,0.226 -3.522,-0.262c-1.143,-0.449 -2.192,-1.124 -3.098,-1.95c-0.551,-0.559 -1.148,-1.245 -1.099,-2.081c0.062,-0.637 0.65,-1.029 1.149,-1.335c1.965,-1.113 4.32,-1.077 6.502,-0.886c2.431,0.248 4.749,1.419 6.395,3.222c1.603,1.731 2.625,4.036 2.657,6.409c0.007,2.193 -0.75,4.343 -1.956,6.16c-1.457,2.204 -3.485,3.963 -5.64,5.461c-1.424,0.947 -2.889,1.832 -4.409,2.615c2.251,1.452 4.296,3.284 5.777,5.53c1.479,2.229 2.288,4.905 2.211,7.583c-0.145,4.415 -2.269,8.702 -5.645,11.545c-1.508,1.347 -3.153,2.536 -4.844,3.646c2.724,1.736 5.353,3.844 6.945,6.708c1.209,2.165 1.632,4.729 1.293,7.176c-0.227,1.851 -0.789,3.651 -1.544,5.353c-1.466,3.245 -3.889,5.982 -6.684,8.154c0.975,0.933 1.866,1.964 2.564,3.123c1.089,1.78 1.686,3.871 1.626,5.963c-0.04,2.041 -0.701,4.063 -1.867,5.735c-0.636,0.933 -1.48,1.687 -2.282,2.471c-1.077,0.982 -2.208,1.907 -3.418,2.72c0.747,0.714 1.502,1.423 2.243,2.144c1.661,1.667 2.705,3.985 2.652,6.359c0.017,2.749 -1.34,5.346 -3.25,7.261c-0.067,-0.053 -0.2,-0.159 -0.266,-0.214c0.188,-1.231 0.472,-2.447 0.617,-3.685c0.23,-1.466 0.104,-3.038 -0.646,-4.343c-1.052,-1.841 -2.803,-3.148 -4.568,-4.254c-0.208,8.552 -0.414,17.103 -0.629,25.656c-0.02,0.111 -0.061,0.218 -0.125,0.321l-0.81,0c-0.099,-0.093 -0.148,-0.203 -0.15,-0.33c-0.211,-8.548 -0.421,-17.096 -0.627,-25.645c-1.56,0.965 -3.068,2.099 -4.156,3.598c-0.845,1.15 -1.238,2.598 -1.152,4.019c0.105,1.586 0.468,3.139 0.726,4.704c-0.071,0.04 -0.216,0.118 -0.287,0.157c-1.883,-1.879 -3.211,-4.424 -3.242,-7.122c-0.067,-2.191 0.774,-4.37 2.222,-6.008c0.826,-0.935 1.766,-1.763 2.673,-2.619c-1.826,-1.24 -3.504,-2.696 -5.006,-4.312c-2.549,-2.849 -3.253,-7.143 -1.856,-10.686c0.719,-1.935 2.01,-3.598 3.483,-5.021c-3.017,-2.329 -5.59,-5.344 -7.006,-8.911c-0.955,-2.429 -1.566,-5.069 -1.239,-7.686c0.231,-2.068 1.095,-4.036 2.358,-5.678c1.594,-2.083 3.703,-3.699 5.889,-5.113c-1.689,-1.107 -3.328,-2.298 -4.84,-3.641c-3.534,-2.983 -5.715,-7.564 -5.637,-12.202c0.056,-2.621 0.968,-5.192 2.482,-7.323c1.454,-2.07 3.393,-3.765 5.507,-5.136c-3.134,-1.653 -6.206,-3.569 -8.606,-6.213c-1.724,-1.894 -3.03,-4.252 -3.333,-6.822c-0.273,-2.026 0.242,-4.111 1.284,-5.857c1.375,-2.349 3.722,-4.117 6.378,-4.742c1.075,-0.282 2.193,-0.291 3.298,-0.342c1.758,0.016 3.641,0.267 5.075,1.373c0.464,0.327 0.737,0.92 0.551,1.48c-0.355,1.106 -1.326,1.846 -2.234,2.497c-0.875,0.579 -1.831,1.068 -2.856,1.312c-1.609,0.237 -3.361,0.029 -4.71,-0.941c-0.499,-0.334 -0.858,-0.82 -1.257,-1.258c-0.292,0.325 -0.219,0.786 -0.267,1.187c-0.118,1.854 0.183,3.77 1.092,5.408c1.038,1.932 2.792,3.368 4.677,4.429c2.472,1.426 5.219,2.253 7.93,3.083c-0.386,-14.793 -0.72,-29.588 -1.1,-44.38m0.344,-0.006c0.368,14.629 0.722,29.259 1.076,43.887c0.019,0.198 -0.025,0.411 0.051,0.601c0.95,0.258 1.893,0.553 2.849,0.782c0.982,-0.232 1.96,-0.507 2.918,-0.82c0.005,-1.378 0.045,-2.755 0.087,-4.134c0.33,-13.439 0.655,-26.878 0.99,-40.317c-2.656,0.007 -5.315,0.006 -7.971,0.001m-15.45,29.474c-1.436,1.596 -2.371,3.668 -2.482,5.821c-0.069,2.192 0.669,4.358 1.863,6.18c1.418,2.156 3.389,3.887 5.493,5.351c3.925,2.684 8.309,4.594 12.702,6.37c2.077,0.853 4.239,1.567 6.123,2.816c1.837,1.189 3.474,2.832 4.251,4.913c0.713,1.859 0.586,3.983 -0.227,5.79c-1.049,2.317 -2.978,4.123 -5.121,5.438c-0.908,0.62 -1.876,1.143 -2.82,1.709c2.391,1.3 4.793,2.585 7.098,4.031c1.089,-0.708 2.152,-1.456 3.18,-2.247c1.744,-1.368 3.454,-2.85 4.668,-4.729c1.29,-1.956 2.174,-4.194 2.478,-6.522c0.415,-2.729 -0.133,-5.585 -1.487,-7.989c-1.127,-2.04 -2.767,-3.757 -4.598,-5.181c-2.341,-1.807 -4.989,-3.184 -7.722,-4.297c-2.716,-1.038 -5.569,-1.657 -8.335,-2.544c-2.524,-0.742 -5.03,-1.631 -7.3,-2.981c-1.749,-1.039 -3.364,-2.406 -4.375,-4.198c-1.184,-2.038 -1.456,-4.5 -1.114,-6.804c0.093,-0.295 0.444,-0.492 0.738,-0.359c0.296,0.236 0.469,0.589 0.757,0.834c1.07,1.015 2.595,1.405 4.038,1.348c1.26,0.004 2.415,-0.606 3.458,-1.25c0.893,-0.631 1.877,-1.329 2.237,-2.41c0.225,-0.685 -0.436,-1.163 -0.947,-1.457c-1.884,-1.054 -4.131,-1.028 -6.22,-0.849c-2.415,0.234 -4.724,1.402 -6.336,3.216m26.931,-2.668c-0.57,0.266 -1.192,0.561 -1.531,1.12c-0.244,0.707 0.292,1.363 0.738,1.856c1.078,1.079 2.433,1.891 3.897,2.322c2.004,0.408 4.387,-0.116 5.617,-1.863c0.226,-0.403 0.845,-0.242 0.95,0.174c0.154,1.092 0.189,2.208 0.037,3.305c-0.247,2.106 -1.255,4.097 -2.766,5.581c-1.874,1.857 -4.291,3.037 -6.726,3.982c-2.313,0.854 -4.695,1.514 -7.063,2.194c3.294,0.866 6.434,2.286 9.311,4.101c3.051,-1.641 6.081,-3.465 8.457,-6.027c1.728,-1.836 3.069,-4.132 3.407,-6.661c0.343,-2.104 -0.232,-4.29 -1.369,-6.073c-1.328,-2.119 -3.487,-3.704 -5.918,-4.304c-1.121,-0.292 -2.285,-0.327 -3.438,-0.351c-1.222,0.012 -2.468,0.163 -3.603,0.644m-24.223,30.476c-1.105,2.358 -1.442,5.064 -0.963,7.624c0.396,2.37 1.386,4.631 2.787,6.581c1.196,1.641 2.759,2.97 4.352,4.213c2.084,1.631 4.367,2.975 6.588,4.404c2.303,1.447 4.611,2.895 6.746,4.582c1.403,1.153 2.847,2.388 3.608,4.078c0.734,1.53 0.77,3.333 0.236,4.931c-0.631,1.884 -1.856,3.598 -3.534,4.686c-0.888,0.639 -1.804,1.241 -2.741,1.808c2.464,1.57 5.011,3.063 7.178,5.046c1.265,-0.975 2.445,-2.066 3.493,-3.271c2.533,-2.837 4.202,-6.449 4.659,-10.229c0.23,-2.063 -0.041,-4.204 -0.943,-6.087c-1.158,-2.494 -3.202,-4.446 -5.389,-6.054c-4.077,-2.934 -8.73,-4.925 -12.91,-7.694c-1.26,-0.82 -2.431,-1.803 -3.363,-2.987c-1.248,-1.534 -2.092,-3.469 -2.053,-5.471c-0.01,-2.008 0.914,-3.93 2.261,-5.384c1.686,-1.824 3.921,-3.043 6.223,-3.911c-3.182,-1.302 -6.382,-2.58 -9.438,-4.168c-2.806,1.828 -5.372,4.221 -6.797,7.303m14.092,-1.81c0.176,5.626 0.263,11.259 0.438,16.885c0.708,0.459 1.45,0.879 2.195,1.28c0.635,-0.312 1.228,-0.709 1.85,-1.05c0.143,-0.11 0.42,-0.174 0.374,-0.411c0.118,-5.578 0.277,-11.153 0.398,-16.73c-0.86,-0.408 -1.725,-0.813 -2.625,-1.126c-0.896,0.337 -1.781,0.708 -2.63,1.152m-3.11,2.109c-1.296,1.171 -2.348,2.683 -2.723,4.41c-0.451,1.964 0.026,4.079 1.134,5.744c1.151,1.882 2.924,3.281 4.79,4.406c-0.108,-2.282 -0.098,-4.57 -0.184,-6.854c-0.071,-3.22 -0.166,-6.441 -0.228,-9.662c-0.989,0.562 -1.948,1.186 -2.789,1.956m8.703,-1.957c-0.125,5.505 -0.253,11.012 -0.41,16.518c2.373,-1.414 4.587,-3.363 5.601,-5.996c0.725,-1.866 0.649,-4.031 -0.269,-5.817c-1.033,-2.086 -2.923,-3.593 -4.922,-4.705m-16.017,27.387c-1.281,1.55 -2.22,3.411 -2.539,5.407c-0.392,2.346 -0.01,4.762 0.77,6.99c0.738,2.268 1.964,4.365 3.494,6.192c2.542,3.039 5.869,5.293 9.29,7.234c1.382,0.816 2.886,1.446 4.14,2.465c1.068,0.836 1.941,2.041 2.06,3.426c0.112,1.34 -0.483,2.625 -1.255,3.685c-0.823,1.084 -1.73,2.103 -2.667,3.091c1.291,1.265 2.582,2.531 3.906,3.764c1.563,-1.073 3.026,-2.289 4.359,-3.638c1.373,-1.289 2.353,-2.984 2.809,-4.811c0.72,-2.768 0.164,-5.799 -1.378,-8.194c-1.247,-1.963 -2.989,-3.568 -4.868,-4.917c-2.839,-2.098 -6.018,-3.69 -8.837,-5.818c-1.79,-1.488 -3.028,-3.694 -3.206,-6.03c-0.113,-1.703 0.521,-3.404 1.602,-4.706c1.44,-1.7 3.261,-3.02 5.082,-4.278c-2.369,-1.548 -4.777,-3.035 -7.155,-4.566c-2.061,1.314 -4.044,2.809 -5.607,4.704m11.15,1.444c0.096,4.851 0.257,9.702 0.339,14.552c0.519,0.343 1.049,0.667 1.571,1.007c0.524,-0.337 1.053,-0.661 1.57,-1.007c0.083,-4.851 0.242,-9.701 0.341,-14.553c-0.611,-0.488 -1.265,-0.917 -1.901,-1.37c-0.653,0.44 -1.303,0.884 -1.92,1.371m-3.155,2.859c-0.907,1.084 -1.531,2.448 -1.571,3.876c-0.092,1.984 0.781,3.901 2.028,5.403c0.746,0.915 1.759,1.54 2.719,2.204c-0.156,-4.699 -0.238,-9.403 -0.361,-14.105c-0.989,0.816 -1.998,1.625 -2.815,2.622m7.309,-2.625c-0.109,4.705 -0.203,9.409 -0.356,14.11c0.375,-0.25 0.738,-0.516 1.11,-0.768c1.497,-0.999 2.6,-2.528 3.221,-4.208c0.604,-1.623 0.587,-3.506 -0.209,-5.064c-0.83,-1.694 -2.338,-2.899 -3.766,-4.07m-9.748,21.021c-1.686,1.603 -3.111,3.562 -3.727,5.832c-1.011,3.459 -0.006,7.437 2.595,9.945c1.895,1.939 4.051,3.621 6.414,4.951c2.633,1.507 5.475,2.869 7.458,5.244c1.077,1.257 1.664,2.911 1.598,4.568c-0.077,1.463 -0.394,2.901 -0.645,4.342c1.167,-1.266 2.06,-2.801 2.487,-4.473c0.602,-2.286 0.203,-4.812 -1.115,-6.778c-0.795,-1.243 -1.961,-2.172 -2.997,-3.203c-2.059,-1.905 -4.113,-3.826 -5.981,-5.923c-0.939,-1.124 -1.986,-2.227 -2.475,-3.638c-0.414,-1.104 -0.357,-2.379 0.207,-3.418c0.716,-1.343 1.995,-2.277 3.307,-2.982c-2.457,-1.351 -4.901,-2.751 -7.126,-4.467m6.228,5.418c0.103,2.993 0.16,5.988 0.232,8.984c0.346,0.379 0.696,0.754 1.042,1.135c0.349,-0.375 0.699,-0.751 1.043,-1.13c0.074,-2.998 0.131,-5.996 0.235,-8.994c-0.399,-0.303 -0.85,-0.524 -1.274,-0.785c-0.427,0.261 -0.88,0.483 -1.278,0.79m-2.536,4.253c0.166,1.725 1.347,3.092 2.441,4.341c-0.078,-1.013 -0.074,-2.032 -0.09,-3.047c-0.049,-1.776 -0.122,-3.55 -0.121,-5.327c-1.304,0.893 -2.385,2.386 -2.23,4.033m5.408,-4.028c-0.067,2.792 -0.119,5.584 -0.22,8.373c1.086,-1.259 2.281,-2.621 2.438,-4.354c0.154,-1.645 -0.927,-3.12 -2.218,-4.019m-8.173,16.742c-1.304,1.385 -2.174,3.194 -2.335,5.098c-0.261,2.717 0.89,5.428 2.723,7.396c-0.325,-2.082 -0.979,-4.229 -0.416,-6.329c0.518,-1.95 2.004,-3.447 3.566,-4.632c0.836,-0.666 1.775,-1.18 2.679,-1.742c-1.271,-0.691 -2.541,-1.387 -3.749,-2.182c-0.833,0.786 -1.677,1.562 -2.468,2.391m5.746,0.487c0.193,8.605 0.44,17.209 0.616,25.815c0.142,-0.003 0.286,-0.003 0.429,0c0.172,-8.608 0.425,-17.212 0.614,-25.818c-0.274,-0.17 -0.552,-0.337 -0.828,-0.501c-0.279,0.165 -0.556,0.333 -0.831,0.504l0,0Z" style="fill:#fff;fill-rule:nonzero;"/><path d="M31.569,15.788c0.397,-0.354 0.883,-0.682 1.431,-0.711c0.228,-0.026 0.407,0.187 0.424,0.399c0.196,1.097 0.602,2.143 1.064,3.153c0.16,0.362 0.401,0.699 0.465,1.096c-0.09,0.577 -0.497,1.05 -0.921,1.426c-4.438,3.669 -9.184,7.046 -14.426,9.472c-1.823,0.712 -3.815,0.952 -5.759,0.749c-0.893,-0.071 -1.983,-0.124 -2.53,-0.951c-0.269,-0.332 -0.001,-0.72 0.179,-1.018c3.858,-1.619 7.527,-3.682 10.908,-6.147c3.209,-2.294 6.211,-4.86 9.165,-7.468m0.237,0.252c-2.178,1.916 -4.372,3.816 -6.664,5.595c-4.099,3.232 -8.564,6.035 -13.399,8.024c-0.081,0.182 -0.294,0.387 -0.129,0.585c0.437,0.636 1.28,0.7 1.979,0.762c1.995,0.234 4.057,0.026 5.928,-0.722c5.156,-2.401 9.837,-5.715 14.209,-9.333c0.39,-0.317 0.75,-0.726 0.882,-1.224c-0.04,-0.172 -0.126,-0.326 -0.201,-0.483c-0.622,-1.213 -1.107,-2.501 -1.351,-3.844c-0.479,0.063 -0.906,0.314 -1.254,0.64Z" style="fill:#fff;fill-rule:nonzero;"/><path d="M102.345,15.478c0.016,-0.211 0.19,-0.426 0.418,-0.401c0.584,0.026 1.089,0.392 1.507,0.773c3.695,3.258 7.473,6.454 11.619,9.13c2.645,1.738 5.476,3.181 8.386,4.424c0.138,0.269 0.403,0.57 0.248,0.887c-0.306,0.63 -1.031,0.907 -1.685,0.984c-1.614,0.211 -3.271,0.263 -4.866,-0.114c-1.817,-0.34 -3.409,-1.329 -5.029,-2.17c-3.893,-2.19 -7.539,-4.803 -10.975,-7.653c-0.477,-0.367 -0.921,-0.831 -1.11,-1.415c-0.1,-0.23 0.021,-0.463 0.115,-0.671c0.609,-1.194 1.129,-2.451 1.372,-3.774m0.373,-0.084c-0.259,1.528 -0.914,2.941 -1.562,4.332c0.261,0.934 1.177,1.409 1.851,2.017c4.094,3.301 8.463,6.319 13.244,8.543c2.179,0.875 4.606,0.991 6.904,0.586c0.413,-0.109 0.859,-0.314 1.048,-0.722c0.064,-0.182 -0.119,-0.331 -0.174,-0.489c-2.894,-1.21 -5.684,-2.669 -8.312,-4.383c-4.199,-2.706 -8.019,-5.945 -11.76,-9.246c-0.343,-0.324 -0.77,-0.559 -1.239,-0.638l0,0Z" style="fill:#fff;fill-rule:nonzero;"/><path d="M35.186,21.412c0.277,-0.123 0.659,-0.105 0.856,0.151c0.616,0.706 1.265,1.426 2.123,1.84c0.398,0.197 0.852,0.398 1.023,0.844c0.13,0.417 -0.206,0.768 -0.502,1.008c-2.594,2.183 -5.134,4.456 -7.98,6.314c-2.008,1.282 -4.275,2.295 -6.689,2.403c-1.109,0.057 -2.219,-0.105 -3.29,-0.387c-0.354,-0.271 -0.267,-0.978 0.142,-1.176c1.709,-1.004 3.441,-1.971 5.072,-3.098c2.989,-2.008 5.71,-4.395 8.196,-6.996c0.335,-0.314 0.611,-0.722 1.049,-0.903m-0.543,0.876c-2.092,2.19 -4.319,4.265 -6.761,6.064c-2.132,1.628 -4.456,2.975 -6.775,4.316c-0.248,0.089 -0.251,0.36 -0.29,0.576c2.031,0.601 4.246,0.492 6.23,-0.228c2.674,-0.937 4.937,-2.698 7.14,-4.427c1.473,-1.216 2.934,-2.447 4.384,-3.69c0.182,-0.155 0.398,-0.405 0.235,-0.649c-0.355,-0.44 -0.957,-0.542 -1.388,-0.89c-0.686,-0.446 -1.179,-1.109 -1.759,-1.671c-0.444,-0.075 -0.735,0.326 -1.016,0.599l0,0Z" style="fill:#fff;fill-rule:nonzero;"/><path d="M99.913,21.407c0.398,-0.181 0.845,0.025 1.134,0.314c0.418,0.414 0.824,0.841 1.239,1.26c3.054,3.136 6.523,5.87 10.303,8.077c0.771,0.452 1.544,0.9 2.315,1.352c0.38,0.184 0.399,0.684 0.29,1.041c-0.159,0.217 -0.458,0.188 -0.69,0.263c-1.824,0.438 -3.758,0.321 -5.538,-0.252c-2.254,-0.732 -4.274,-2.033 -6.134,-3.476c-2.012,-1.506 -3.9,-3.172 -5.818,-4.792c-0.277,-0.228 -0.566,-0.577 -0.426,-0.958c0.278,-0.662 1.074,-0.756 1.584,-1.17c0.68,-0.442 1.154,-1.121 1.741,-1.659m0.138,0.329c-0.58,0.616 -1.13,1.281 -1.86,1.732c-0.398,0.28 -0.92,0.385 -1.228,0.782c-0.181,0.284 0.108,0.542 0.307,0.713c1.939,1.634 3.841,3.315 5.878,4.829c1.657,1.281 3.443,2.435 5.414,3.167c2.028,0.759 4.31,0.918 6.391,0.274c-0.058,-0.171 -0.017,-0.413 -0.205,-0.511c-1.263,-0.764 -2.564,-1.465 -3.804,-2.268c-3.647,-2.279 -6.927,-5.106 -9.878,-8.229c-0.261,-0.257 -0.608,-0.687 -1.015,-0.489l0,0Z" style="fill:#fff;fill-rule:nonzero;"/><path d="M39.296,26.005c0.351,-0.403 0.581,-0.97 1.125,-1.15c0.28,-0.136 0.575,0.027 0.847,0.103c1.121,0.395 2.318,0.454 3.488,0.6c0.408,0.089 0.353,0.584 0.25,0.888c-0.16,0.432 -0.285,0.889 -0.538,1.279c-1.999,2.75 -4.678,4.981 -7.654,6.609c-1.586,0.903 -3.577,1.491 -5.344,0.772c-0.347,-0.08 -0.467,-0.434 -0.604,-0.717c0.108,-0.2 0.226,-0.398 0.396,-0.555c1.047,-1.027 2.21,-1.927 3.3,-2.908c1.69,-1.526 3.266,-3.181 4.734,-4.921m1.093,-0.761c-0.37,0.254 -0.563,0.686 -0.854,1.016c-1.227,1.451 -2.531,2.838 -3.909,4.146c-1.293,1.268 -2.753,2.351 -4.056,3.608c-0.108,0.122 -0.259,0.224 -0.308,0.387c0.073,0.382 0.502,0.454 0.816,0.547c1.289,0.321 2.657,0.015 3.841,-0.537c2.504,-1.234 4.767,-2.944 6.691,-4.964c0.921,-1.031 1.955,-2.097 2.159,-3.527c-1.173,-0.179 -2.378,-0.215 -3.512,-0.604c-0.277,-0.076 -0.598,-0.276 -0.868,-0.072Z" style="fill:#fff;fill-rule:nonzero;"/><path d="M91.013,25.558c1.24,-0.147 2.506,-0.224 3.687,-0.663c0.37,-0.191 0.797,-0.046 1.086,0.22c2.04,2.647 4.427,5.021 6.986,7.166c0.732,0.672 1.613,1.242 2.133,2.108c-0.109,0.2 -0.181,0.431 -0.353,0.592c-1.03,0.55 -2.264,0.535 -3.372,0.261c-0.973,-0.214 -1.852,-0.697 -2.715,-1.175c-2.422,-1.403 -4.614,-3.211 -6.414,-5.356c-0.443,-0.584 -0.952,-1.14 -1.147,-1.866c-0.147,-0.393 -0.453,-1.1 0.109,-1.287m3.824,-0.349c-1.228,0.469 -2.551,0.527 -3.838,0.71c0.216,1.466 1.288,2.552 2.234,3.607c1.931,2.004 4.193,3.706 6.7,4.922c1.321,0.597 2.904,0.904 4.283,0.321c0.191,-0.081 0.411,-0.379 0.181,-0.545c-1.268,-1.294 -2.742,-2.367 -4.051,-3.621c-1.686,-1.624 -3.337,-3.303 -4.747,-5.176c-0.183,-0.219 -0.491,-0.357 -0.762,-0.218Z" style="fill:#fff;fill-rule:nonzero;"/></g><g id="___.2e.2e.2e.23.2e.2e.2e.007f00ff"><path d="M66.626,0.907c1.497,-0.295 3.107,-0.056 4.416,0.747c1.629,0.963 2.776,2.714 2.965,4.603c0.188,1.577 -0.271,3.223 -1.257,4.471c-0.976,1.265 -2.462,2.127 -4.049,2.326c-2.16,0.322 -4.442,-0.646 -5.739,-2.398c-1.127,-1.462 -1.504,-3.442 -1.054,-5.226c0.548,-2.24 2.455,-4.069 4.718,-4.523l0,0Z" style="fill:#2ab77e;fill-rule:nonzero;"/><path d="M43.425,1.413c2.635,-0.338 5.374,-0.357 7.931,0.442c0.859,0.275 1.675,0.675 2.421,1.185c1.144,0.811 1.894,2.04 2.542,3.256c0.904,1.728 1.306,3.846 0.538,5.698c-0.676,1.844 -2.182,3.175 -3.574,4.485c-0.398,0.376 -0.884,0.801 -0.861,1.404c-0.147,2.49 1.51,4.905 3.796,5.835c2.124,0.9 4.552,0.639 6.692,-0.067c0.084,3.231 0.135,6.463 0.231,9.694c-1.697,0.925 -3.641,1.295 -5.558,1.322c-2.682,-0.029 -5.237,-1.234 -7.252,-2.949c-1.324,-1.176 -2.533,-2.601 -3.01,-4.342c-0.202,-0.771 -0.115,-1.744 0.604,-2.222c0.413,-0.308 0.644,-1.258 0.011,-1.455c-0.756,-0.049 -1.501,0.147 -2.257,0.112c-1.984,0.013 -3.982,-0.525 -5.656,-1.601c-3.397,-2.155 -5.185,-6.33 -4.87,-10.283c0.021,-0.347 0.093,-0.7 0.034,-1.048c-0.148,-0.49 -0.878,-0.583 -1.187,-0.198c-0.469,0.559 -0.808,1.214 -1.276,1.776c-2.195,2.779 -5.179,4.766 -8.104,6.694c-2.894,1.947 -5.851,3.805 -8.934,5.441c-2.105,1.098 -4.241,2.198 -6.533,2.853c-2.124,0.416 -4.339,0.705 -6.483,0.26c-0.883,-0.238 -1.912,-0.677 -2.233,-1.607c1.992,-1.043 4.077,-1.898 6.121,-2.833c2.164,-1.026 4.236,-2.235 6.281,-3.479c2.608,-1.592 5.171,-3.258 7.666,-5.024c3.985,-2.795 7.869,-5.731 11.931,-8.415c2.032,-1.318 4.088,-2.614 6.265,-3.684c1.494,-0.667 3.111,-1.011 4.724,-1.25l0,0Z" style="fill:#2ab77e;fill-rule:nonzero;"/><path d="M86.359,1.4c2.471,-0.37 5.005,-0.219 7.452,0.264c1.245,0.267 2.492,0.595 3.629,1.181c4.893,2.549 9.336,5.85 13.812,9.052c4.237,3.088 8.553,6.076 13.079,8.727c1.651,0.987 3.338,1.918 5.081,2.733c1.872,0.841 3.761,1.647 5.598,2.565c0.131,0.08 0.441,0.184 0.259,0.39c-0.473,0.796 -1.38,1.203 -2.247,1.411c-1.87,0.38 -3.795,0.171 -5.66,-0.13c-1.109,-0.156 -2.144,-0.606 -3.18,-1.011c-4.797,-2.098 -9.253,-4.884 -13.588,-7.8c-3.151,-2.084 -6.368,-4.327 -8.425,-7.571c-0.142,-0.203 -0.278,-0.413 -0.456,-0.585c-0.353,-0.362 -1.134,-0.164 -1.148,0.384c-0.02,0.529 0.093,1.052 0.081,1.58c0.031,1.928 -0.397,3.869 -1.28,5.585c-1.014,2.011 -2.693,3.691 -4.734,4.652c-1.458,0.688 -3.078,1.008 -4.686,0.985c-0.71,0.015 -1.409,-0.163 -2.117,-0.113c-0.586,0.175 -0.391,0.95 -0.137,1.322c0.426,0.314 0.803,0.751 0.831,1.307c0.104,1.325 -0.62,2.54 -1.368,3.574c-1.506,1.94 -3.583,3.44 -5.911,4.229c-1.933,0.711 -4.055,0.63 -6.038,0.19c-0.896,-0.218 -1.765,-0.541 -2.576,-0.975c0.094,-3.231 0.146,-6.463 0.231,-9.695c2.138,0.707 4.564,0.966 6.686,0.068c2.293,-0.929 3.951,-3.35 3.799,-5.845c0.021,-0.598 -0.464,-1.02 -0.859,-1.395c-1.344,-1.268 -2.797,-2.545 -3.502,-4.302c-0.629,-1.409 -0.604,-3.042 -0.116,-4.49c0.451,-1.349 1.189,-2.593 2.08,-3.697c1.368,-1.549 3.42,-2.268 5.41,-2.59l0,0Z" style="fill:#2ab77e;fill-rule:nonzero;"/><path d="M63.901,14.819c2.656,0.005 5.315,0.006 7.971,-0.001c-0.335,13.439 -0.66,26.878 -0.99,40.317c-0.042,1.379 -0.082,2.756 -0.087,4.134c-0.958,0.313 -1.936,0.588 -2.918,0.82c-0.956,-0.229 -1.899,-0.524 -2.849,-0.782c-0.076,-0.19 -0.032,-0.403 -0.051,-0.601c-0.354,-14.628 -0.708,-29.258 -1.076,-43.887l0,0Z" style="fill:#2ab77e;fill-rule:nonzero;"/><path d="M31.806,16.04c0.348,-0.326 0.775,-0.577 1.254,-0.64c0.244,1.343 0.729,2.631 1.351,3.844c0.075,0.157 0.161,0.311 0.201,0.483c-0.132,0.498 -0.492,0.907 -0.882,1.224c-4.372,3.618 -9.053,6.932 -14.209,9.333c-1.871,0.748 -3.933,0.956 -5.928,0.722c-0.699,-0.062 -1.542,-0.126 -1.979,-0.762c-0.165,-0.198 0.048,-0.403 0.129,-0.585c4.835,-1.989 9.3,-4.792 13.399,-8.024c2.292,-1.779 4.486,-3.679 6.664,-5.595l0,0Z" style="fill:#2ab77e;fill-rule:nonzero;"/><path d="M102.718,15.394c0.469,0.079 0.896,0.314 1.239,0.638c3.741,3.301 7.561,6.54 11.76,9.246c2.628,1.714 5.418,3.173 8.312,4.383c0.055,0.158 0.238,0.307 0.174,0.489c-0.189,0.408 -0.635,0.613 -1.048,0.722c-2.298,0.405 -4.725,0.289 -6.904,-0.586c-4.781,-2.224 -9.15,-5.242 -13.244,-8.543c-0.674,-0.608 -1.59,-1.083 -1.851,-2.017c0.648,-1.391 1.303,-2.804 1.562,-4.332l0,0Z" style="fill:#2ab77e;fill-rule:nonzero;"/><path d="M34.643,22.288c0.281,-0.273 0.572,-0.674 1.016,-0.599c0.58,0.562 1.073,1.225 1.759,1.671c0.431,0.348 1.033,0.45 1.388,0.89c0.163,0.244 -0.053,0.494 -0.235,0.649c-1.45,1.243 -2.911,2.474 -4.384,3.69c-2.203,1.729 -4.466,3.49 -7.14,4.427c-1.984,0.72 -4.199,0.829 -6.23,0.228c0.039,-0.216 0.042,-0.487 0.29,-0.576c2.319,-1.341 4.643,-2.688 6.775,-4.316c2.442,-1.799 4.669,-3.874 6.761,-6.064l0,0Z" style="fill:#2ab77e;fill-rule:nonzero;"/><path d="M100.051,21.736c0.407,-0.198 0.754,0.232 1.015,0.489c2.951,3.123 6.231,5.95 9.878,8.229c1.24,0.803 2.541,1.504 3.804,2.268c0.188,0.098 0.147,0.34 0.205,0.511c-2.081,0.644 -4.363,0.485 -6.391,-0.274c-1.971,-0.732 -3.757,-1.886 -5.414,-3.167c-2.037,-1.514 -3.939,-3.195 -5.878,-4.829c-0.199,-0.171 -0.488,-0.429 -0.307,-0.713c0.308,-0.397 0.83,-0.502 1.228,-0.782c0.73,-0.451 1.28,-1.116 1.86,-1.732l0,0Z" style="fill:#2ab77e;fill-rule:nonzero;"/><path d="M40.389,25.244c0.27,-0.204 0.591,-0.004 0.868,0.072c1.134,0.389 2.339,0.425 3.512,0.604c-0.204,1.43 -1.238,2.496 -2.159,3.527c-1.924,2.02 -4.187,3.73 -6.691,4.964c-1.184,0.552 -2.552,0.858 -3.841,0.537c-0.314,-0.093 -0.743,-0.165 -0.816,-0.547c0.049,-0.163 0.2,-0.265 0.308,-0.387c1.303,-1.257 2.763,-2.34 4.056,-3.608c1.378,-1.308 2.682,-2.695 3.909,-4.146c0.291,-0.33 0.484,-0.762 0.854,-1.016l0,0Z" style="fill:#2ab77e;fill-rule:nonzero;"/><path d="M94.837,25.209c0.271,-0.139 0.579,-0.001 0.762,0.218c1.41,1.873 3.061,3.552 4.747,5.176c1.309,1.254 2.783,2.327 4.051,3.621c0.23,0.166 0.01,0.464 -0.181,0.545c-1.379,0.583 -2.962,0.276 -4.283,-0.321c-2.507,-1.216 -4.769,-2.918 -6.7,-4.922c-0.946,-1.055 -2.018,-2.141 -2.234,-3.607c1.287,-0.183 2.61,-0.241 3.838,-0.71l0,0Z" style="fill:#2ab77e;fill-rule:nonzero;"/><path d="M48.451,44.293c1.612,-1.814 3.921,-2.982 6.336,-3.216c2.089,-0.179 4.336,-0.205 6.22,0.849c0.511,0.294 1.172,0.772 0.947,1.457c-0.36,1.081 -1.344,1.779 -2.237,2.41c-1.043,0.644 -2.198,1.254 -3.458,1.25c-1.443,0.057 -2.968,-0.333 -4.038,-1.348c-0.288,-0.245 -0.461,-0.598 -0.757,-0.834c-0.294,-0.133 -0.645,0.064 -0.738,0.359c-0.342,2.304 -0.07,4.766 1.114,6.804c1.011,1.792 2.626,3.159 4.375,4.198c2.27,1.35 4.776,2.239 7.3,2.981c2.766,0.887 5.619,1.506 8.335,2.544c2.733,1.113 5.381,2.49 7.722,4.297c1.831,1.424 3.471,3.141 4.598,5.181c1.354,2.404 1.902,5.26 1.487,7.989c-0.304,2.328 -1.188,4.566 -2.478,6.522c-1.214,1.879 -2.924,3.361 -4.668,4.729c-1.028,0.791 -2.091,1.539 -3.18,2.247c-2.305,-1.446 -4.707,-2.731 -7.098,-4.031c0.944,-0.566 1.912,-1.089 2.82,-1.709c2.143,-1.315 4.072,-3.121 5.121,-5.438c0.813,-1.807 0.94,-3.931 0.227,-5.79c-0.777,-2.081 -2.414,-3.724 -4.251,-4.913c-1.884,-1.249 -4.046,-1.963 -6.123,-2.816c-4.393,-1.776 -8.777,-3.686 -12.702,-6.37c-2.104,-1.464 -4.075,-3.195 -5.493,-5.351c-1.194,-1.822 -1.932,-3.988 -1.863,-6.18c0.111,-2.153 1.046,-4.225 2.482,-5.821l0,0Z" style="fill:#2ab77e;fill-rule:nonzero;"/><path d="M75.382,41.625c1.135,-0.481 2.381,-0.632 3.603,-0.644c1.153,0.024 2.317,0.059 3.438,0.351c2.431,0.6 4.59,2.185 5.918,4.304c1.137,1.783 1.712,3.969 1.369,6.073c-0.338,2.529 -1.679,4.825 -3.407,6.661c-2.376,2.562 -5.406,4.386 -8.457,6.027c-2.877,-1.815 -6.017,-3.235 -9.311,-4.101c2.368,-0.68 4.75,-1.34 7.063,-2.194c2.435,-0.945 4.852,-2.125 6.726,-3.982c1.511,-1.484 2.519,-3.475 2.766,-5.581c0.152,-1.097 0.117,-2.213 -0.037,-3.305c-0.105,-0.416 -0.724,-0.577 -0.95,-0.174c-1.23,1.747 -3.613,2.271 -5.617,1.863c-1.464,-0.431 -2.819,-1.243 -3.897,-2.322c-0.446,-0.493 -0.982,-1.149 -0.738,-1.856c0.339,-0.559 0.961,-0.854 1.531,-1.12Z" style="fill:#2ab77e;fill-rule:nonzero;"/><path d="M51.159,72.101c1.425,-3.082 3.991,-5.475 6.797,-7.303c3.056,1.588 6.256,2.866 9.438,4.168c-2.302,0.868 -4.537,2.087 -6.223,3.911c-1.347,1.454 -2.271,3.376 -2.261,5.384c-0.039,2.002 0.805,3.937 2.053,5.471c0.932,1.184 2.103,2.167 3.363,2.987c4.18,2.769 8.833,4.76 12.91,7.694c2.187,1.608 4.231,3.56 5.389,6.054c0.902,1.883 1.173,4.024 0.943,6.087c-0.457,3.78 -2.126,7.392 -4.659,10.229c-1.048,1.205 -2.228,2.296 -3.493,3.271c-2.167,-1.983 -4.714,-3.476 -7.178,-5.046c0.937,-0.567 1.853,-1.169 2.741,-1.808c1.678,-1.088 2.903,-2.802 3.534,-4.686c0.534,-1.598 0.498,-3.401 -0.236,-4.931c-0.761,-1.69 -2.205,-2.925 -3.608,-4.078c-2.135,-1.687 -4.443,-3.135 -6.746,-4.582c-2.221,-1.429 -4.504,-2.773 -6.588,-4.404c-1.593,-1.243 -3.156,-2.572 -4.352,-4.213c-1.401,-1.95 -2.391,-4.211 -2.787,-6.581c-0.479,-2.56 -0.142,-5.266 0.963,-7.624l0,0Z" style="fill:#2ab77e;fill-rule:nonzero;"/><path d="M65.251,70.291c0.849,-0.444 1.734,-0.815 2.63,-1.152c0.9,0.313 1.765,0.718 2.625,1.126c-0.121,5.577 -0.28,11.152 -0.398,16.73c0.046,0.237 -0.231,0.301 -0.374,0.411c-0.622,0.341 -1.215,0.738 -1.85,1.05c-0.745,-0.401 -1.487,-0.821 -2.195,-1.28c-0.175,-5.626 -0.262,-11.259 -0.438,-16.885l0,0Z" style="fill:#2ab77e;fill-rule:nonzero;"/><path d="M54.827,97.83c1.563,-1.895 3.546,-3.39 5.607,-4.704c2.378,1.531 4.786,3.018 7.155,4.566c-1.821,1.258 -3.642,2.578 -5.082,4.278c-1.081,1.302 -1.715,3.003 -1.602,4.706c0.178,2.336 1.416,4.542 3.206,6.03c2.819,2.128 5.998,3.72 8.837,5.818c1.879,1.349 3.621,2.954 4.868,4.917c1.542,2.395 2.098,5.426 1.378,8.194c-0.456,1.827 -1.436,3.522 -2.809,4.811c-1.333,1.349 -2.796,2.565 -4.359,3.638c-1.324,-1.233 -2.615,-2.499 -3.906,-3.764c0.937,-0.988 1.844,-2.007 2.667,-3.091c0.772,-1.06 1.367,-2.345 1.255,-3.685c-0.119,-1.385 -0.992,-2.59 -2.06,-3.426c-1.254,-1.019 -2.758,-1.649 -4.14,-2.465c-3.421,-1.941 -6.748,-4.195 -9.29,-7.234c-1.53,-1.827 -2.756,-3.924 -3.494,-6.192c-0.78,-2.228 -1.162,-4.644 -0.77,-6.99c0.319,-1.996 1.258,-3.857 2.539,-5.407l0,0Z" style="fill:#2ab77e;fill-rule:nonzero;"/><path d="M65.977,99.274c0.617,-0.487 1.267,-0.931 1.92,-1.371c0.636,0.453 1.29,0.882 1.901,1.37c-0.099,4.852 -0.258,9.702 -0.341,14.553c-0.517,0.346 -1.046,0.67 -1.57,1.007c-0.522,-0.34 -1.052,-0.664 -1.571,-1.007c-0.082,-4.85 -0.243,-9.701 -0.339,-14.552l0,0Z" style="fill:#2ab77e;fill-rule:nonzero;"/><path d="M60.383,120.529c2.225,1.716 4.669,3.116 7.126,4.467c-1.312,0.705 -2.591,1.639 -3.307,2.982c-0.564,1.039 -0.621,2.314 -0.207,3.418c0.489,1.411 1.536,2.514 2.475,3.638c1.868,2.097 3.922,4.018 5.981,5.923c1.036,1.031 2.202,1.96 2.997,3.203c1.318,1.966 1.717,4.492 1.115,6.778c-0.427,1.672 -1.32,3.207 -2.487,4.473c0.251,-1.441 0.568,-2.879 0.645,-4.342c0.066,-1.657 -0.521,-3.311 -1.598,-4.568c-1.983,-2.375 -4.825,-3.737 -7.458,-5.244c-2.363,-1.33 -4.519,-3.012 -6.414,-4.951c-2.601,-2.508 -3.606,-6.486 -2.595,-9.945c0.616,-2.27 2.041,-4.229 3.727,-5.832l0,0Z" style="fill:#2ab77e;fill-rule:nonzero;"/><path d="M66.611,125.947c0.398,-0.307 0.851,-0.529 1.278,-0.79c0.424,0.261 0.875,0.482 1.274,0.785c-0.104,2.998 -0.161,5.996 -0.235,8.994c-0.344,0.379 -0.694,0.755 -1.043,1.13c-0.346,-0.381 -0.696,-0.756 -1.042,-1.135c-0.072,-2.996 -0.129,-5.991 -0.232,-8.984l0,0Z" style="fill:#2ab77e;fill-rule:nonzero;"/><path d="M61.31,142.914c0.791,-0.829 1.635,-1.605 2.468,-2.391c1.208,0.795 2.478,1.491 3.749,2.182c-0.904,0.562 -1.843,1.076 -2.679,1.742c-1.562,1.185 -3.048,2.682 -3.566,4.632c-0.563,2.1 0.091,4.247 0.416,6.329c-1.833,-1.968 -2.984,-4.679 -2.723,-7.396c0.161,-1.904 1.031,-3.713 2.335,-5.098l0,0Z" style="fill:#2ab77e;fill-rule:nonzero;"/><path d="M67.056,143.401c0.275,-0.171 0.552,-0.339 0.831,-0.504c0.276,0.164 0.554,0.331 0.828,0.501c-0.189,8.606 -0.442,17.21 -0.614,25.818c-0.143,-0.003 -0.287,-0.003 -0.429,0c-0.176,-8.606 -0.423,-17.21 -0.616,-25.815l0,0Z" style="fill:#2ab77e;fill-rule:nonzero;"/></g></svg>